<!DOCTYPE svg PUBLIC "-//W3C//DTD SVG 20010904//EN" "http://www.w3.org/TR/2001/REC-SVG-20010904/DTD/svg10.dtd">
<svg version="1.0" xmlns="http://www.w3.org/2000/svg" width="1050px" height="1050px" viewBox="0 0 10500 10500" preserveAspectRatio="xMidYMid meet">
<g id="layer101" fill="#000000" stroke="none">
 <path d="M4820 10394 c-972 -82 -1896 -435 -2675 -1023 -188 -142 -340 -276 -535 -471 -203 -202 -339 -357 -492 -564 -799 -1070 -1148 -2408 -977 -3741 125 -973 525 -1882 1170 -2656 132 -158 458 -485 614 -615 337 -281 653 -488 1025 -673 730 -363 1486 -541 2300 -541 420 0 759 40 1247 147 15 4 26 17 34 42 7 20 36 92 66 161 73 167 204 562 242 730 46 205 63 312 51 324 -7 7 -53 -32 -143 -120 -153 -151 -221 -205 -361 -286 -300 -173 -630 -237 -1085 -208 -204 13 -320 33 -537 96 -476 137 -986 406 -1509 799 -319 240 -678 559 -874 779 -182 203 -174 207 39 19 501 -441 872 -714 1320 -971 488 -281 915 -440 1367 -509 159 -24 543 -24 678 1 321 58 584 188 792 389 213 206 297 356 418 748 32 100 62 194 68 207 l12 25 7 -34 c4 -19 11 -167 14 -329 11 -473 -13 -719 -102 -1068 -56 -221 -61 -246 -44 -240 18 6 137 179 205 300 80 141 122 256 180 490 50 202 84 396 120 682 14 110 29 204 33 208 12 12 70 -89 190 -327 184 -368 257 -553 346 -879 20 -71 38 -131 40 -133 13 -13 26 16 45 100 73 326 80 626 20 905 -23 106 -88 300 -148 442 -59 141 -38 135 39 -12 45 -85 126 -286 159 -391 47 -153 56 -236 56 -522 0 -295 -15 -420 -69 -590 -14 -43 -24 -81 -22 -83 6 -5 192 130 322 233 1123 898 1818 2221 1924 3660 13 180 13 550 0 730 -10 132 -38 376 -44 382 -2 2 -23 -27 -48 -64 -149 -222 -484 -558 -803 -805 -177 -137 -398 -279 -412 -265 -5 6 45 63 223 259 282 310 593 703 664 841 41 79 37 111 -18 134 -52 22 -167 13 -261 -21 -41 -14 -76 -24 -78 -23 -7 7 31 115 59 168 44 84 90 122 244 202 102 54 140 79 142 94 2 11 -12 38 -33 62 -40 49 -41 56 -17 94 47 70 105 77 163 18 22 -21 39 -36 39 -34 0 3 -31 98 -69 212 -213 635 -517 1179 -952 1702 -206 248 -561 584 -834 790 -698 527 -1508 864 -2374 989 -340 49 -819 63 -1161 34z m1420 -201 c302 -316 485 -581 575 -836 15 -43 31 -80 35 -82 4 -3 15 39 25 93 37 214 85 446 93 454 14 14 35 -47 90 -262 134 -518 186 -901 186 -1365 0 -595 -91 -1081 -280 -1493 -335 -729 -388 -913 -401 -1382 -6 -253 6 -426 38 -538 28 -98 18 -112 -20 -31 -34 71 -78 232 -107 394 -28 153 -25 467 5 640 46 261 114 488 256 845 196 497 257 767 276 1220 17 390 -4 1023 -32 993 -4 -4 -24 -57 -44 -118 -20 -60 -57 -153 -82 -205 -35 -75 -46 -92 -54 -78 -5 9 -13 128 -19 265 -13 324 -22 391 -76 551 -104 311 -262 601 -498 910 -58 76 -106 142 -106 146 0 17 45 -22 140 -121z m-723 -705 c211 -213 303 -332 417 -540 37 -68 51 -84 59 -71 3 5 15 76 27 158 27 191 37 230 54 215 27 -22 141 -405 190 -639 63 -296 92 -617 83 -915 -12 -390 -30 -477 -228 -1071 -83 -247 -161 -493 -174 -545 -61 -245 -58 -549 9 -807 9 -33 16 -71 16 -84 -2 -89 -98 196 -131 388 -29 165 -31 386 -6 518 23 118 72 301 163 620 88 305 139 505 159 630 21 126 29 451 16 630 -12 179 -51 475 -62 475 -4 0 -22 -44 -40 -97 -17 -54 -43 -123 -57 -153 -23 -52 -25 -53 -32 -30 -5 14 -13 96 -20 183 -31 443 -150 708 -517 1156 -57 69 -103 129 -103 133 0 19 42 -17 177 -154z m3677 -1492 c78 -24 186 -95 272 -180 168 -167 305 -471 329 -731 4 -43 2 -66 -3 -60 -5 6 -75 110 -155 232 -170 259 -226 335 -310 422 -153 157 -230 184 -527 185 -242 1 -253 7 -123 72 73 37 166 63 278 78 52 7 189 -3 239 -18z m-794 -273 c-29 -76 -78 -193 -111 -259 -51 -106 -68 -130 -126 -185 -47 -43 -93 -74 -151 -102 -94 -44 -90 -34 -53 -138 69 -191 47 -532 -55 -836 -42 -125 -119 -284 -179 -368 -132 -186 -363 -334 -692 -444 -213 -71 -226 -64 -60 29 233 131 397 248 518 370 64 64 84 93 132 190 61 126 102 248 149 440 29 119 30 132 25 275 -3 83 -11 207 -17 276 l-13 127 -73 88 c-40 48 -72 90 -70 91 2 2 63 10 136 18 153 17 195 27 264 62 74 38 146 118 256 286 126 193 163 244 167 230 2 -6 -19 -74 -47 -150z m-4237 -1070 c125 -59 208 -171 215 -290 8 -117 -34 -178 -146 -214 -55 -17 -102 -23 -258 -28 -169 -5 -194 -8 -213 -25 -41 -37 -23 -124 31 -152 29 -15 39 -15 98 -3 95 20 203 16 275 -12 173 -64 203 -236 60 -338 -40 -28 -37 -41 8 -41 38 0 92 31 129 74 35 42 51 26 56 -58 4 -64 4 -64 -29 -81 -43 -23 -121 -16 -157 14 -68 54 -69 54 -117 41 -27 -8 -78 -11 -130 -8 -72 4 -95 10 -152 39 -88 45 -125 91 -131 163 -5 65 20 118 73 155 32 22 38 41 13 41 -23 0 -108 63 -128 95 -15 24 -20 50 -20 97 0 56 4 71 29 105 17 24 47 49 70 59 23 10 41 20 41 23 0 4 -19 16 -42 29 -56 30 -80 64 -86 123 -12 131 144 232 353 226 78 -2 99 -6 158 -34z m-1940 -248 c67 -17 132 -48 165 -78 38 -35 24 -37 -30 -4 -45 28 -61 32 -138 35 -113 5 -167 -17 -244 -98 -67 -70 -119 -167 -96 -180 8 -5 132 -83 275 -173 191 -121 261 -170 263 -186 9 -59 -110 -160 -216 -182 -32 -6 -98 -9 -153 -7 -81 4 -107 10 -162 36 -120 56 -202 155 -242 296 -13 44 -16 85 -13 165 4 92 8 115 35 172 50 108 134 175 258 205 71 17 230 17 298 -1z m784 -13 c109 -57 163 -142 163 -257 0 -122 -39 -158 -261 -240 -176 -64 -229 -114 -229 -212 0 -43 28 -96 61 -113 30 -17 112 -14 148 4 41 22 64 58 96 151 15 44 32 88 37 98 13 26 44 21 67 -12 25 -35 81 -151 81 -168 0 -20 -72 -61 -157 -89 -67 -23 -91 -26 -168 -22 -106 5 -163 27 -220 83 -55 55 -79 116 -79 201 -1 63 2 75 28 108 37 49 104 91 251 156 127 56 198 99 215 130 15 28 12 88 -6 120 -24 40 -65 60 -121 60 -83 0 -118 -31 -266 -230 -51 -69 -73 -63 -119 30 -59 116 -58 118 39 157 142 56 218 73 313 70 63 -3 96 -9 127 -25z m-1758 -11 c20 -11 45 -28 55 -40 25 -27 36 -27 36 3 0 32 15 36 126 36 70 0 96 -3 100 -14 3 -7 0 -60 -6 -117 -26 -252 -23 -609 6 -921 l7 -68 -123 0 -122 0 6 143 c4 78 9 154 12 169 8 43 -3 49 -36 18 -105 -98 -297 -74 -425 54 -99 99 -141 221 -133 388 4 78 10 107 32 152 84 171 320 271 465 197z m2307 -14 c2 -2 0 -35 -6 -73 -25 -176 -22 -563 7 -704 l6 -30 -123 0 -122 0 6 48 c29 219 32 363 11 590 -8 90 -13 167 -11 170 4 7 225 6 232 -1z m1177 -47 c-1 -30 -5 -186 -9 -347 l-6 -291 45 -45 c78 -79 168 -87 213 -19 38 56 49 147 48 412 0 146 -5 263 -12 290 -8 34 -8 46 1 52 7 5 59 7 117 6 l105 -3 -2 -30 c-1 -16 -7 -149 -12 -295 -13 -324 -22 -381 -73 -452 -62 -88 -261 -92 -376 -8 -45 33 -48 31 -43 -33 l2 -28 -113 3 c-106 3 -113 4 -111 23 1 11 7 74 14 140 13 131 6 520 -11 615 -7 41 -6 56 3 62 6 4 59 7 117 6 l105 -3 -2 -55z m-1224 -876 c76 -64 33 -184 -67 -184 -54 0 -77 12 -97 50 -24 46 -19 85 16 125 27 30 37 35 74 35 32 0 52 -7 74 -26z m5161 -370 c-38 -247 -138 -436 -296 -561 -46 -37 -84 -71 -84 -76 0 -4 19 -6 43 -3 309 40 470 78 687 165 85 34 159 61 166 61 42 0 -162 -440 -351 -758 -132 -222 -343 -465 -578 -667 -116 -101 -285 -221 -294 -211 -7 7 -1 13 157 181 215 228 408 482 533 702 81 142 208 406 199 415 -4 4 -39 -1 -77 -13 -180 -52 -576 -84 -743 -60 -157 23 -452 103 -452 122 0 10 13 14 181 49 169 35 351 94 460 151 193 101 329 268 414 512 33 95 51 91 35 -9z m-3025 -511 c-80 -190 -155 -677 -156 -1003 -1 -144 2 -173 21 -232 38 -114 109 -175 250 -214 78 -22 346 -25 530 -7 63 6 117 10 119 7 9 -9 -37 -34 -134 -73 -325 -129 -614 -132 -797 -8 -77 52 -139 139 -170 240 -21 66 -23 92 -23 292 0 235 7 293 55 480 49 190 141 377 239 483 48 52 80 69 66 35z m535 -302 c0 -5 -43 -74 -95 -152 -170 -255 -235 -410 -235 -560 0 -62 3 -71 31 -104 52 -58 75 -66 232 -71 78 -3 153 -8 167 -10 l25 -6 -23 -18 c-53 -43 -267 -96 -346 -85 -166 22 -251 128 -250 315 1 105 20 175 85 300 82 159 198 281 347 367 65 37 62 36 62 24z m245 -1937 c-160 -485 -482 -828 -872 -929 -201 -52 -431 -41 -698 36 -379 108 -854 373 -1286 716 -116 92 -146 123 -121 123 4 0 51 -25 103 -56 549 -325 993 -535 1342 -633 274 -77 556 -81 746 -11 83 31 224 112 323 184 139 104 323 351 436 589 31 66 58 113 60 105 2 -8 -13 -64 -33 -124z"/>
 <path d="M3943 6661 c-47 -12 -97 -54 -118 -98 -35 -72 -20 -179 32 -225 28 -25 324 -30 369 -5 38 20 44 33 44 98 0 61 -26 114 -76 158 -68 60 -176 91 -251 72z"/>
 <path d="M3945 5916 c-22 -9 -48 -25 -57 -36 -61 -75 -43 -248 31 -297 26 -18 48 -23 96 -23 106 0 145 50 145 185 0 86 -17 136 -53 160 -35 23 -114 28 -162 11z"/>
 <path d="M1840 5997 c-7 -31 -11 -100 -9 -163 5 -127 27 -185 92 -238 33 -26 48 -31 105 -34 83 -4 124 18 152 81 52 114 4 200 -180 324 -70 47 -133 83 -144 83 -2 0 -10 -24 -16 -53z"/>
 <path d="M1100 6338 c-90 -46 -133 -164 -134 -368 0 -145 20 -244 64 -314 39 -60 79 -80 162 -81 75 0 108 17 143 76 19 32 20 50 18 311 -2 306 -6 327 -66 370 -46 33 -130 36 -187 6z"/>
 <path d="M7576 1963 c-2 -10 -28 -131 -56 -270 -28 -138 -67 -302 -86 -364 -144 -454 -379 -757 -765 -990 -46 -27 -85 -51 -87 -54 -11 -10 193 51 347 104 231 80 394 149 621 262 266 133 440 237 440 264 0 27 -62 261 -106 399 -78 244 -257 653 -291 664 -6 2 -14 -5 -17 -15z"/>
 </g>

</svg>